<?xml version="1.0" standalone="no"?>
<!DOCTYPE svg PUBLIC "-//W3C//DTD SVG 20010904//EN"
 "http://www.w3.org/TR/2001/REC-SVG-20010904/DTD/svg10.dtd">
<svg version="1.0" xmlns="http://www.w3.org/2000/svg"
 width="1418.000000pt" height="620.000000pt" viewBox="0 0 1418.000000 620.000000"
 preserveAspectRatio="xMidYMid meet">
<metadata>
Created by potrace 1.16, written by Peter Selinger 2001-2019
</metadata>
<g transform="translate(0.000000,620.000000) scale(0.100000,-0.100000)"
fill="#fffff" stroke="none">
<path d="M1828 4574 l-148 -114 -77 45 c-171 99 -296 130 -513 130 -160 -1
-254 -20 -375 -74 -248 -113 -422 -349 -444 -604 -22 -238 55 -426 247 -608
109 -104 208 -170 448 -300 239 -129 259 -141 317 -198 66 -62 87 -107 87
-178 -1 -143 -131 -239 -340 -250 -163 -9 -301 39 -461 159 -184 139 -279 313
-296 541 l-6 87 -38 0 -39 0 0 -450 c0 -247 2 -450 5 -450 3 0 68 49 145 110
l138 109 69 -46 c86 -58 188 -106 289 -135 104 -30 315 -32 444 -4 412 88 637
266 717 566 23 89 23 300 0 390 -64 241 -202 362 -807 700 -254 142 -302 184
-316 277 -17 114 57 225 172 259 108 31 285 6 432 -62 256 -118 392 -291 418
-531 l7 -63 38 0 39 0 0 405 c0 223 -1 405 -2 405 -2 -1 -69 -53 -150 -116z"/>
<path d="M2180 4190 l0 -380 43 0 43 0 17 73 c53 220 166 402 310 496 60 39
184 90 255 106 l32 7 0 -1011 0 -1011 -145 0 -145 0 0 -40 0 -40 750 0 750 0
0 40 0 40 -140 0 -140 0 0 1011 0 1011 33 -7 c126 -28 289 -115 362 -196 87
-96 154 -230 197 -391 l23 -88 42 0 43 0 0 380 0 380 -1165 0 -1165 0 0 -380z"/>
<path d="M4670 4530 l0 -40 125 0 125 0 0 -1010 0 -1010 -125 0 -125 0 0 -40
0 -40 730 0 730 0 0 40 0 40 -130 0 -130 0 0 1010 0 1010 130 0 130 0 0 40 0
40 -730 0 -730 0 0 -40z"/>
<path d="M6330 4530 l0 -40 130 0 130 0 0 -1010 0 -1010 -130 0 -130 0 0 -40
0 -40 1075 0 1075 0 0 405 0 405 -40 0 c-38 0 -40 -1 -40 -32 -1 -108 -73
-259 -180 -371 -165 -174 -384 -286 -632 -321 l-48 -7 0 1010 0 1011 140 0
140 0 0 40 0 40 -745 0 -745 0 0 -40z"/>
<path d="M8690 4530 l0 -40 125 0 125 0 0 -1010 0 -1010 -125 0 -125 0 0 -40
0 -40 1090 0 1090 0 0 406 0 405 -36 -3 c-36 -3 -37 -4 -54 -73 -74 -290 -272
-504 -557 -601 -96 -32 -214 -54 -294 -54 l-39 0 0 506 0 507 78 -5 c95 -6
154 -31 223 -94 87 -82 132 -183 145 -328 l7 -76 33 0 34 0 0 540 0 540 -34 0
-33 0 -6 -84 c-20 -257 -154 -411 -369 -424 l-78 -5 0 472 0 471 73 0 c93 0
246 -24 320 -49 148 -51 282 -159 357 -286 43 -72 79 -177 80 -227 0 -38 0
-38 40 -38 l40 0 0 340 0 340 -1055 0 -1055 0 0 -40z"/>
<path d="M11130 4190 l0 -380 43 0 43 0 17 73 c53 220 166 402 310 496 60 39
184 90 255 106 l32 7 0 -1011 0 -1011 -145 0 -145 0 0 -40 0 -40 750 0 750 0
0 40 0 40 -140 0 -140 0 0 1011 0 1011 33 -7 c126 -28 289 -115 362 -196 87
-96 154 -230 197 -391 l23 -88 42 0 43 0 0 380 0 380 -1165 0 -1165 0 0 -380z"/>
</g>
</svg>
