<svg width="512" height="512" xmlns="http://www.w3.org/2000/svg">

 <g>
  <title>background</title>
  <rect fill="none" id="canvas_background" height="602" width="802" y="-1" x="-1"/>
 </g>
 <g>
  <title>Layer 1</title>
  <g id="svg_1">
   <g id="svg_2">
    <path fill="#ffffff" id="svg_3" d="m362,0l-212,0c-82.71,0 -150,67.29 -150,150l0,212c0,82.71 67.29,150 150,150l212,0c82.71,0 150,-67.29 150,-150l0,-212c0,-82.71 -67.29,-150 -150,-150zm130,362c0,71.682 -58.318,130 -130,130l-212,0c-71.682,0 -130,-58.318 -130,-130l0,-212c0,-71.682 58.318,-130 130,-130l212,0c71.682,0 130,58.318 130,130l0,212z"/>
   </g>
  </g>
  <g id="svg_4">
   <g id="svg_5">
    <path fill="#ffffff" id="svg_6" d="m362,44l-212,0c-58.449,0 -106,47.551 -106,106l0,212c0,58.449 47.551,106 106,106l61,0c5.523,0 10,-4.477 10,-10s-4.477,-10 -10,-10l-61,0c-47.42,0 -86,-38.58 -86,-86l0,-212c0,-47.42 38.58,-86 86,-86l212,0c47.42,0 86,38.58 86,86l0,212c0,47.42 -38.58,86 -86,86l-60.333,0c-5.523,0 -10,4.477 -10,10s4.477,10 10,10l60.333,0c58.449,0 106,-47.551 106,-106l0,-212c0,-58.449 -47.551,-106 -106,-106z"/>
   </g>
  </g>
  <g id="svg_7">
   <g id="svg_8">
    <path fill="#ffffff" id="svg_9" d="m263.07,450.93c-1.86,-1.86 -4.44,-2.93 -7.07,-2.93s-5.21,1.07 -7.07,2.93s-2.93,4.44 -2.93,7.07s1.07,5.21 2.93,7.07s4.44,2.93 7.07,2.93s5.21,-1.07 7.07,-2.93c1.86,-1.86 2.93,-4.44 2.93,-7.07s-1.07,-5.21 -2.93,-7.07z"/>
   </g>
  </g>
  <g id="svg_10">
   <g id="svg_11">
    <path fill="#ffffff" id="svg_12" d="m175.83,155.71c-3.777,-4.03 -10.104,-4.236 -14.135,-0.461l-0.443,0.417c-4.017,3.79 -4.201,10.119 -0.41,14.136c1.967,2.085 4.618,3.137 7.275,3.137c2.462,0 4.929,-0.904 6.861,-2.727l0.391,-0.367c4.03,-3.776 4.237,-10.105 0.461,-14.135z"/>
   </g>
  </g>
  <g id="svg_13">
   <g id="svg_14">
    <path fill="#ffffff" id="svg_15" d="m256,118c-21.964,0 -43.824,5.291 -63.217,15.301c-4.907,2.533 -6.832,8.565 -4.299,13.473c2.534,4.907 8.566,6.831 13.473,4.299c16.805,-8.675 34.988,-13.073 54.043,-13.073c65.065,0 118,52.935 118,118s-52.935,118 -118,118s-118,-52.935 -118,-118c0,-20.419 5.295,-40.537 15.313,-58.178c2.727,-4.802 1.045,-10.906 -3.758,-13.634c-4.803,-2.726 -10.906,-1.045 -13.634,3.758c-11.724,20.646 -17.921,44.179 -17.921,68.054c0,76.093 61.907,138 138,138s138,-61.907 138,-138s-61.907,-138 -138,-138z"/>
   </g>
  </g>
  <g id="svg_16">
   <g id="svg_17">
    <path fill="#ffffff" id="svg_18" d="m256,166c-49.626,0 -90,40.374 -90,90c0,49.626 40.374,90 90,90c49.626,0 90,-40.374 90,-90c0,-49.626 -40.374,-90 -90,-90zm0,160c-38.598,0 -70,-31.402 -70,-70c0,-38.598 31.402,-70 70,-70c38.598,0 70,31.402 70,70c0,38.598 -31.402,70 -70,70z"/>
   </g>
  </g>
  <g id="svg_19">
   <g id="svg_20">
    <path fill="#ffffff" id="svg_21" d="m387.25,86.75c-20.953,0 -38,17.047 -38,38s17.047,38 38,38s38,-17.047 38,-38s-17.047,-38 -38,-38zm0,56c-9.925,0 -18,-8.075 -18,-18s8.075,-18 18,-18s18,8.075 18,18s-8.075,18 -18,18z"/>
   </g>
  </g>
  <g id="svg_22"/>
  <g id="svg_23"/>
  <g id="svg_24"/>
  <g id="svg_25"/>
  <g id="svg_26"/>
  <g id="svg_27"/>
  <g id="svg_28"/>
  <g id="svg_29"/>
  <g id="svg_30"/>
  <g id="svg_31"/>
  <g id="svg_32"/>
  <g id="svg_33"/>
  <g id="svg_34"/>
  <g id="svg_35"/>
  <g id="svg_36"/>
 </g>
</svg>